<svg xmlns="http://www.w3.org/2000/svg" viewBox="0 0 1000 150" preserveAspectRatio="xMidYMid meet">
  <!-- Definitions -->
  <defs>
    <linearGradient id="goldColor" x1="0%" y1="0%" x2="100%" y2="0%">
      <stop offset="0%" style="stop-color:#E9B949;stop-opacity:1" />
      <stop offset="100%" style="stop-color:#E9B949;stop-opacity:1" />
    </linearGradient>
    
    <!-- Base gradient -->
    <linearGradient id="octagonGradient" x1="0%" y1="0%" x2="100%" y2="100%">
      <stop offset="0%" stop-color="#4ADBDB" />
      <stop offset="50%" stop-color="#3AB3B3" />
      <stop offset="100%" stop-color="#2A9D9D" />
    </linearGradient>
    
    <!-- Hover gradient -->
    <linearGradient id="octagonHoverGradient" x1="0%" y1="0%" x2="100%" y2="100%">
      <stop offset="0%" stop-color="#DB4ADB" />
      <stop offset="50%" stop-color="#B33AB3" />
      <stop offset="100%" stop-color="#9D2A9D" />
    </linearGradient>
    
    <!-- Position-based shimmer gradients -->
    <radialGradient id="positionGradient" cx="50%" cy="50%" r="70%" fx="50%" fy="50%">
      <stop offset="0%" stop-color="#5FF4F4" />
      <stop offset="50%" stop-color="#3AB3B3" />
      <stop offset="100%" stop-color="#2A9D9D" />
      <animate attributeName="fx" values="30%;70%;30%" dur="5s" repeatCount="indefinite" />
      <animate attributeName="fy" values="30%;70%;30%" dur="4s" repeatCount="indefinite" />
    </radialGradient>
    
    <radialGradient id="positionHoverGradient" cx="50%" cy="50%" r="70%" fx="50%" fy="50%">
      <stop offset="0%" stop-color="#F45FF4" />
      <stop offset="50%" stop-color="#B33AB3" />
      <stop offset="100%" stop-color="#9D2A9D" />
      <animate attributeName="fx" values="30%;70%;30%" dur="2s" repeatCount="indefinite" />
      <animate attributeName="fy" values="30%;70%;30%" dur="1.5s" repeatCount="indefinite" />
    </radialGradient>
    
    <!-- Turbulence filter for shimmer -->
    <filter id="shimmerFilter" x="-50%" y="-50%" width="200%" height="200%">
      <feTurbulence type="fractalNoise" baseFrequency="0.01 0.05" numOctaves="2" result="noise" seed="0">
        <animate attributeName="seed" values="0;100;0" dur="10s" repeatCount="indefinite" />
      </feTurbulence>
      <feDisplacementMap in="SourceGraphic" in2="noise" scale="5" />
    </filter>
    
    <filter id="shimmerHoverFilter" x="-50%" y="-50%" width="200%" height="200%">
      <feTurbulence type="fractalNoise" baseFrequency="0.02 0.1" numOctaves="3" result="noise" seed="0">
        <animate attributeName="seed" values="0;100;0" dur="3s" repeatCount="indefinite" />
      </feTurbulence>
      <feDisplacementMap in="SourceGraphic" in2="noise" scale="7" />
    </filter>
    
    <filter id="shadow" x="-20%" y="-20%" width="140%" height="140%">
      <feDropShadow dx="0" dy="3" stdDeviation="2" flood-opacity="0.3" />
    </filter>
  </defs>
  
  <style>
    .gem {
      filter: url(#shadow);
      transition: filter 0.5s ease;
    }
    .gem:hover {
      filter: url(#shadow) url(#shimmerHoverFilter);
    }
    .gem-body {
      fill: url(#positionGradient);
      stroke: #1A7A7A;
      stroke-width: 1.5;
      transition: fill 0.3s ease, stroke 0.3s ease;
    }
    .gem:hover .gem-body {
      fill: url(#positionHoverGradient);
      stroke: #7A1A7A;
    }
    .gem-facet {
      fill: url(#positionGradient);
      stroke: #1A7A7A;
      stroke-width: 1;
      stroke-opacity: 0.9;
      transition: fill 0.3s ease, stroke 0.3s ease;
    }
    .gem:hover .gem-facet {
      fill: url(#positionHoverGradient);
      stroke: #7A1A7A;
    }
    .inner-octagon {
      fill: url(#positionGradient);
      stroke: #1A7A7A;
      stroke-width: 1;
      transition: fill 0.3s ease, stroke 0.3s ease;
    }
    .gem:hover .inner-octagon {
      fill: url(#positionHoverGradient);
      stroke: #7A1A7A;
    }
    .facet-light {
      fill-opacity: 1;
    }
    .facet-medium {
      fill-opacity: 0.85;
    }
    .facet-dark {
      fill-opacity: 0.7;
    }
    
    @keyframes colorPulse {
      0%, 100% { stop-color: #5FF4F4; }
      50% { stop-color: #4ADBDB; }
    }
    
    @keyframes colorPulseHover {
      0%, 100% { stop-color: #F45FF4; }
      50% { stop-color: #DB4ADB; }
    }
  </style>
  
  <!-- Outline for top line - slightly above -->
  <path d="M0,45 L400,45 L500,85 L600,45 L1000,45" stroke="#8B6914" stroke-width="8" fill="none" stroke-linecap="butt" stroke-linejoin="miter" />
  
  <!-- Outline for top line - slightly below -->
  <path d="M0,55 L400,55 L500,95 L600,55 L1000,55" stroke="#8B6914" stroke-width="8" fill="none" stroke-linecap="butt" stroke-linejoin="miter" />
  
  <!-- Top line (main) -->
  <path d="M0,50 L400,50 L500,90 L600,50 L1000,50" stroke="#E9B949" stroke-width="6" fill="none" stroke-linecap="butt" stroke-linejoin="miter" />
  
  <!-- Outline for bottom line - slightly above -->
  <path d="M0,85 L400,85 L500,45 L600,85 L1000,85" stroke="#8B6914" stroke-width="8" fill="none" stroke-linecap="butt" stroke-linejoin="miter" />
  
  <!-- Outline for bottom line - slightly below -->
  <path d="M0,95 L400,95 L500,55 L600,95 L1000,95" stroke="#8B6914" stroke-width="8" fill="none" stroke-linecap="butt" stroke-linejoin="miter" />
  
  <!-- Bottom line (main) -->
  <path d="M0,90 L400,90 L500,50 L600,90 L1000,90" stroke="#E9B949" stroke-width="6" fill="none" stroke-linecap="butt" stroke-linejoin="miter" />
  
  <!-- Gem in the center, scaled and positioned -->
  <g class="gem" transform="translate(464, 34) scale(0.72)">
    <!-- Main outer octagon outline -->
    <polygon class="gem-body" points="50,10 73,17 87,37 87,63 73,83 50,90 27,83 13,63 13,37 27,17" />
    
    <!-- Inner octagon -->
    <polygon class="inner-octagon" points="50,30 62,34 68,45 68,55 62,66 50,70 38,66 32,55 32,45 38,34" />
    
    <!-- Connecting edge: top to top -->
    <line x1="50" y1="10" x2="50" y2="30" stroke="#1A7A7A" stroke-width="1" />
    
    <!-- Connecting edge: bottom to bottom -->
    <line x1="50" y1="70" x2="50" y2="90" stroke="#1A7A7A" stroke-width="1" />
    
    <!-- Connecting facets - top -->
    <polygon class="gem-facet facet-light" points="50,10 73,17 62,34 50,30" />
    <polygon class="gem-facet facet-light" points="50,10 27,17 38,34 50,30" />
    
    <!-- Connecting facets - top right -->
    <polygon class="gem-facet facet-medium" points="73,17 87,37 68,45 62,34" />
    
    <!-- Connecting facets - right -->
    <polygon class="gem-facet facet-medium" points="87,37 87,63 68,55 68,45" />
    
    <!-- Connecting facets - bottom right -->
    <polygon class="gem-facet facet-dark" points="87,63 73,83 62,66 68,55" />
    
    <!-- Connecting facets - bottom -->
    <polygon class="gem-facet facet-dark" points="73,83 50,90 50,70 62,66" />
    <polygon class="gem-facet facet-dark" points="50,90 27,83 38,66 50,70" />
    
    <!-- Connecting facets - bottom left -->
    <polygon class="gem-facet facet-dark" points="27,83 13,63 32,55 38,66" />
    
    <!-- Connecting facets - left -->
    <polygon class="gem-facet facet-medium" points="13,63 13,37 32,45 32,55" />
    
    <!-- Connecting facets - top left -->
    <polygon class="gem-facet facet-medium" points="13,37 27,17 38,34 32,45" />
  </g>
</svg>